<svg xmlns="http://www.w3.org/2000/svg" viewBox="0 0 97.89 98.46"><title>bird-black</title><path d="M94.59,50.19c-2.86-5.31-9.13-8.32-14.94-9.09C80.71,38.35,82.79,36,84,33.24c2.87-6.64,1.92-11.37,2.51-18.12.38-4.31,1.77-4.44,4.67-7.16.33-.77-.63-1.06-1.24-1.1-3.81-.26-11.35.82-14.7,2.72-4,2.27-5.92,8.54-8.93,11.91-1.78-3.85-3.31-7.29-6-10.63C47.06-5.57,23.44-1.9,9.93,12.18c-2,2.12-6,5.84-4.34,9a118.79,118.79,0,0,0,13.74,4.37c7,1.78,14.07,2.91,21.08,4.46.48.1,5.34,1.1,5.06,1.57C40.76,34,36.68,40,31.9,42c-6.44,2.72-19.73-.36-27.12-.27C.11,41.78,0,42.73,0,47.11c0,7.23,3,16.68,6.94,22.7,1.52,2.33,5.58,7.79,7.64,9.41s3.51-2.55,4.48-4c6.16-9.44,14.76-24.13,27.74-23.47a52.86,52.86,0,0,1,9.7,2.09A31.29,31.29,0,0,1,61.26,56l-6.93,42,.46.4a66.16,66.16,0,0,0,10.87-2.24c2.9-.85,6.13-1.87,9.09-3a31.4,31.4,0,0,0,12.91-8.4C97.11,75.28,101.34,62.76,94.59,50.19ZM79.67,10.89a1.38,1.38,0,0,1,1.09,2.36C78.93,15,77.27,11.4,79.67,10.89Z"/></svg>