<svg xmlns="http://www.w3.org/2000/svg" viewBox="0 0 126.17 59.28"><title>logo-text-right</title><path d="M0,0H3.84V14h2c6.53-8.23,7.81-8.28,11.65-8.28V9.22c-2.69,0-4.09.51-8.32,6.1L19.5,26.58h-5L6,17.32H3.84v9.26H0Z"/><path d="M21.12,20.78c0-4.4,3.54-6.87,9.9-6.87,1.36,0,2.77,0,4.31.17v-.77c0-3.24-1.71-4.65-5-4.65a16.93,16.93,0,0,0-6.87,1.79L22.32,7.38a18.77,18.77,0,0,1,8.61-2.13c5.29,0,8.15,2.43,8.15,7.42v7.72a32.8,32.8,0,0,0,.77,5.85l-3.54.68C36.05,26,35.84,25,35.63,24a11.67,11.67,0,0,1-7.34,3c-3.76,0-7.17-1.87-7.17-6.18m7.6,2.9A10.4,10.4,0,0,0,35.24,21V17.19A37.89,37.89,0,0,0,31.1,17c-3.54,0-6.44.73-6.44,3.71,0,2,1.8,3,4.06,3"/><path d="M46.47,19.54V9.09H43V5.67h3.54L46.72,0h3.59V5.67h8V9.09h-8V18.6c0,3.24,1.15,4.91,3.84,4.91a9.93,9.93,0,0,0,3.71-.77l1.11,3A11.89,11.89,0,0,1,53.12,27c-3.37,0-6.65-2.18-6.65-7.47"/><path d="M62,20.78c0-4.4,3.55-6.87,9.9-6.87,1.37,0,2.78,0,4.31.17v-.77c0-3.24-1.7-4.65-5-4.65a17,17,0,0,0-6.87,1.79L63.15,7.38a18.8,18.8,0,0,1,8.62-2.13c5.29,0,8.15,2.43,8.15,7.42v7.72a32.58,32.58,0,0,0,.76,5.85l-3.54.68C76.89,26,76.67,25,76.46,24a11.67,11.67,0,0,1-7.34,3C65.37,27,62,25.09,62,20.78m7.6,2.9A10.45,10.45,0,0,0,76.08,21V17.19A38,38,0,0,0,71.94,17c-3.54,0-6.44.73-6.44,3.71,0,2,1.79,3,4,3"/><path d="M84.87,16.08C84.87,9.51,89,5.25,95.15,5.25a12.09,12.09,0,0,1,7.68,2.6l-1.49,3a10.51,10.51,0,0,0-6.15-2.13c-4.35,0-6.44,3.24-6.44,7.33,0,4.65,2.6,7.43,7.21,7.43a10.23,10.23,0,0,0,5.63-1.67l1.37,3A11.86,11.86,0,0,1,95.83,27c-6.78,0-11-4.23-11-10.93"/><path d="M106,16.13c0-6.66,3.92-10.88,10.11-10.88s10.07,4.22,10.07,10.88S122.24,27,116.1,27,106,22.78,106,16.13m16.3,0c0-4.78-2.18-7.38-6.19-7.38s-6.23,2.6-6.23,7.38,2.22,7.38,6.23,7.38,6.19-2.61,6.19-7.38"/><path d="M7.81,56.25,9.6,53.09a10.75,10.75,0,0,0,7.21,2.69c2.26,0,4.31-.68,4.31-2.73S18.94,50.53,15.83,50c-3.75-.69-7.25-2-7.25-6.32,0-3.67,3.37-6.14,8-6.14a12.46,12.46,0,0,1,7.93,2.56l-1.71,3.07A10.39,10.39,0,0,0,16.43,41c-2.65,0-4,.94-4,2.64s1.58,2.26,5.54,3,7,2.35,7,6.36c0,4.18-4,6.23-8.28,6.23a14.39,14.39,0,0,1-8.87-3"/><path d="M30.55,51.81V41.36h-3.5V38h3.54l.22-5.68h3.58V38h8v3.41h-8v9.51c0,3.24,1.15,4.91,3.84,4.91A9.86,9.86,0,0,0,41.94,55l1.11,3a11.88,11.88,0,0,1-5.84,1.28c-3.37,0-6.66-2.18-6.66-7.47"/><path d="M47.32,50.79V38h3.84v12.2c0,4.69,2.18,5.63,5,5.63a7.56,7.56,0,0,0,5.59-2.35V38h3.84V52.66a32.8,32.8,0,0,0,.77,5.85l-3.54.68c-.26-.85-.43-1.75-.64-2.69A10.88,10.88,0,0,1,55,59.28c-5.8,0-7.72-3.33-7.72-8.49"/><path d="M70.53,48.65c0-6.86,3.76-11.13,9.86-11.13a8.64,8.64,0,0,1,6,2.17V32.22h3.84V52.66a32.8,32.8,0,0,0,.77,5.85l-3.54.68c-.25-.89-.47-1.83-.64-2.77a9.76,9.76,0,0,1-7.08,2.86c-5.76,0-9.26-3.8-9.26-10.63m9.73,7.13a9.19,9.19,0,0,0,6.18-2.48V43.75C85.38,42,83,41,80.6,41c-4.52,0-6.19,3.15-6.19,7.55,0,5,2.14,7.21,5.85,7.21"/><path d="M96.22,35.05a2.6,2.6,0,1,1,5.2,0,2.6,2.6,0,0,1-5.2,0m.68,5.69h3.84V58.85H96.9Z"/><path d="M106,48.4c0-6.66,3.93-10.88,10.11-10.88s10.07,4.22,10.07,10.88-3.93,10.88-10.07,10.88S106,55.05,106,48.4m16.3,0c0-4.78-2.18-7.38-6.19-7.38s-6.23,2.6-6.23,7.38,2.22,7.38,6.23,7.38,6.19-2.6,6.19-7.38"/></svg>